<?xml version="1.0" encoding="UTF-8" standalone="no"?>
<svg
   xmlns:dc="http://purl.org/dc/elements/1.1/"
   xmlns:cc="http://creativecommons.org/ns#"
   xmlns:rdf="http://www.w3.org/1999/02/22-rdf-syntax-ns#"
   xmlns:svg="http://www.w3.org/2000/svg"
   xmlns="http://www.w3.org/2000/svg"
   viewBox="0 0 480 336"
   height="336"
   width="480"
   xml:space="preserve"
   id="svg2"
   version="1.1"><metadata
     id="metadata8"><rdf:RDF><cc:Work
         rdf:about=""><dc:format>image/svg+xml</dc:format><dc:type
           rdf:resource="http://purl.org/dc/dcmitype/StillImage" /></cc:Work></rdf:RDF></metadata><defs
     id="defs6" /><g
     transform="matrix(1.3333333,0,0,-1.3333333,0,336)"
     id="g10"><g
       transform="scale(0.1)"
       id="g12"><path
         id="path14"
         style="fill:none;stroke:#000000;stroke-width:5;stroke-linecap:butt;stroke-linejoin:miter;stroke-miterlimit:10;stroke-dasharray:none;stroke-opacity:1"
         d="m 399,385 h 31.5 m 3050.5,0 h -31.5" /><g
         transform="scale(10)"
         id="g16"><text
           id="text20"
           style="font-variant:normal;font-weight:normal;font-size:7px;font-family:Helvetica;-inkscape-font-specification:Helvetica;writing-mode:lr-tb;fill:#000000;fill-opacity:1;fill-rule:nonzero;stroke:none"
           transform="matrix(1,0,0,-1,31.8085,36.1648)"><tspan
             id="tspan18"
             y="0"
             x="0">0</tspan></text>
</g><path
         id="path22"
         style="fill:none;stroke:#000000;stroke-width:5;stroke-linecap:butt;stroke-linejoin:miter;stroke-miterlimit:10;stroke-dasharray:none;stroke-opacity:1"
         d="m 399,727 h 31.5 m 3050.5,0 h -31.5" /><g
         transform="scale(10)"
         id="g24"><text
           id="text28"
           style="font-variant:normal;font-weight:normal;font-size:7px;font-family:Helvetica;-inkscape-font-specification:Helvetica;writing-mode:lr-tb;fill:#000000;fill-opacity:1;fill-rule:nonzero;stroke:none"
           transform="matrix(1,0,0,-1,24.0249,70.3648)"><tspan
             id="tspan26"
             y="0"
             x="0 3.892 7.7839999">500</tspan></text>
</g><path
         id="path30"
         style="fill:none;stroke:#000000;stroke-width:5;stroke-linecap:butt;stroke-linejoin:miter;stroke-miterlimit:10;stroke-dasharray:none;stroke-opacity:1"
         d="m 399,1068.5 h 31.5 m 3050.5,0 h -31.5" /><g
         transform="scale(10)"
         id="g32"><text
           id="text36"
           style="font-variant:normal;font-weight:normal;font-size:7px;font-family:Helvetica;-inkscape-font-specification:Helvetica;writing-mode:lr-tb;fill:#000000;fill-opacity:1;fill-rule:nonzero;stroke:none"
           transform="matrix(1,0,0,-1,20.1331,104.515)"><tspan
             id="tspan34"
             y="0"
             x="0 3.892 7.7839999 11.676">1000</tspan></text>
</g><path
         id="path38"
         style="fill:none;stroke:#000000;stroke-width:5;stroke-linecap:butt;stroke-linejoin:miter;stroke-miterlimit:10;stroke-dasharray:none;stroke-opacity:1"
         d="m 399,1410.5 h 31.5 m 3050.5,0 h -31.5" /><g
         transform="scale(10)"
         id="g40"><text
           id="text44"
           style="font-variant:normal;font-weight:normal;font-size:7px;font-family:Helvetica;-inkscape-font-specification:Helvetica;writing-mode:lr-tb;fill:#000000;fill-opacity:1;fill-rule:nonzero;stroke:none"
           transform="matrix(1,0,0,-1,20.1331,138.715)"><tspan
             id="tspan42"
             y="0"
             x="0 3.892 7.7839999 11.676">1500</tspan></text>
</g><path
         id="path46"
         style="fill:none;stroke:#000000;stroke-width:5;stroke-linecap:butt;stroke-linejoin:miter;stroke-miterlimit:10;stroke-dasharray:none;stroke-opacity:1"
         d="m 399,1752.5 h 31.5 m 3050.5,0 h -31.5" /><g
         transform="scale(10)"
         id="g48"><text
           id="text52"
           style="font-variant:normal;font-weight:normal;font-size:7px;font-family:Helvetica;-inkscape-font-specification:Helvetica;writing-mode:lr-tb;fill:#000000;fill-opacity:1;fill-rule:nonzero;stroke:none"
           transform="matrix(1,0,0,-1,20.1331,172.915)"><tspan
             id="tspan50"
             y="0"
             x="0 3.892 7.7839999 11.676">2000</tspan></text>
</g><path
         id="path54"
         style="fill:none;stroke:#000000;stroke-width:5;stroke-linecap:butt;stroke-linejoin:miter;stroke-miterlimit:10;stroke-dasharray:none;stroke-opacity:1"
         d="m 399,2094 h 31.5 m 3050.5,0 h -31.5" /><g
         transform="scale(10)"
         id="g56"><text
           id="text60"
           style="font-variant:normal;font-weight:normal;font-size:7px;font-family:Helvetica;-inkscape-font-specification:Helvetica;writing-mode:lr-tb;fill:#000000;fill-opacity:1;fill-rule:nonzero;stroke:none"
           transform="matrix(1,0,0,-1,20.1331,207.065)"><tspan
             id="tspan58"
             y="0"
             x="0 3.892 7.7839999 11.676">2500</tspan></text>
</g><path
         id="path62"
         style="fill:none;stroke:#000000;stroke-width:5;stroke-linecap:butt;stroke-linejoin:miter;stroke-miterlimit:10;stroke-dasharray:none;stroke-opacity:1"
         d="m 399,2436 h 31.5 m 3050.5,0 h -31.5" /><g
         transform="scale(10)"
         id="g64"><text
           id="text68"
           style="font-variant:normal;font-weight:normal;font-size:7px;font-family:Helvetica;-inkscape-font-specification:Helvetica;writing-mode:lr-tb;fill:#000000;fill-opacity:1;fill-rule:nonzero;stroke:none"
           transform="matrix(1,0,0,-1,20.1331,241.265)"><tspan
             id="tspan66"
             y="0"
             x="0 3.892 7.7839999 11.676">3000</tspan></text>
</g><path
         id="path70"
         style="fill:none;stroke:#000000;stroke-width:5;stroke-linecap:butt;stroke-linejoin:miter;stroke-miterlimit:10;stroke-dasharray:none;stroke-opacity:1"
         d="m 757.5,385 v 31.5" /><g
         transform="scale(10)"
         id="g72"><text
           id="text76"
           style="font-variant:normal;font-weight:normal;font-size:7px;font-family:Helvetica;-inkscape-font-specification:Helvetica;writing-mode:lr-tb;fill:#000000;fill-opacity:1;fill-rule:nonzero;stroke:none"
           transform="matrix(1,0,0,-1,56.8824,29.1648)"><tspan
             id="tspan74"
             y="0"
             x="0 5.0539999 9.7229996 11.669 15.561 17.115 20.615 24.507 28.399 29.952999 33.845001">HA disabled</tspan></text>
</g><path
         id="path78"
         style="fill:none;stroke:#000000;stroke-width:5;stroke-linecap:butt;stroke-linejoin:miter;stroke-miterlimit:10;stroke-dasharray:none;stroke-opacity:1"
         d="m 1474,385 v 31.5" /><g
         transform="scale(10)"
         id="g80"><text
           id="text86"
           style="font-variant:normal;font-weight:normal;font-size:7px;font-family:Helvetica;-inkscape-font-specification:Helvetica;writing-mode:lr-tb;fill:#000000;fill-opacity:1;fill-rule:nonzero;stroke:none"
           transform="matrix(1,0,0,-1,128.141,29.1648)"><tspan
             id="tspan82"
             y="0"
             x="0 5.0539999 9.7229996 11.669 15.561 19.452999 23.344999 27.237 28.791 32.682999 36.575001">HA enabled,</tspan><tspan
             id="tspan84"
             y="7"
             x="-7.5839801 -5.2529802 -1.36098 2.5310199 6.4230199 8.7540197 10.30802 14.20002 18.09202 20.038019 23.930019 25.48402 28.98402 32.876019 36.768021 38.322021 42.21402">redo-log disabled</tspan></text>
</g><path
         id="path88"
         style="fill:none;stroke:#000000;stroke-width:5;stroke-linecap:butt;stroke-linejoin:miter;stroke-miterlimit:10;stroke-dasharray:none;stroke-opacity:1"
         d="m 2191,385 v 31.5" /><g
         transform="scale(10)"
         id="g90"><text
           id="text98"
           style="font-variant:normal;font-weight:normal;font-size:7px;font-family:Helvetica;-inkscape-font-specification:Helvetica;writing-mode:lr-tb;fill:#000000;fill-opacity:1;fill-rule:nonzero;stroke:none"
           transform="matrix(1,0,0,-1,199.841,29.1648)"><tspan
             id="tspan92"
             y="0"
             x="0 5.0539999 9.7229996 11.669 15.561 19.452999 23.344999 27.237 28.791 32.682999 36.575001">HA enabled,</tspan><tspan
             id="tspan94"
             y="7"
             x="-7.97578 -5.6447802 -1.75278 2.13922 6.03122 8.3622198 9.9162197 13.80822 17.70022 19.646219 23.538219 27.43022 31.32222 35.214218 36.768219 40.660221 44.552219">redo-log enabled,</tspan><tspan
             id="tspan96"
             y="14"
             x="-13.02969 -11.47569 -6.8066902 -1.75269 2.9163101 4.8623099 6.80831 10.70031 14.59231 18.09231 19.646311 23.146311 27.038309 28.98431 32.876308 36.768311 40.660309 42.21431 44.160309 48.052311">iSCSI device healthy</tspan></text>
</g><path
         id="path100"
         style="fill:none;stroke:#000000;stroke-width:5;stroke-linecap:butt;stroke-linejoin:miter;stroke-miterlimit:10;stroke-dasharray:none;stroke-opacity:1"
         d="m 2907.5,385 v 31.5" /><g
         transform="scale(10)"
         id="g102"><text
           id="text110"
           style="font-variant:normal;font-weight:normal;font-size:7px;font-family:Helvetica;-inkscape-font-specification:Helvetica;writing-mode:lr-tb;fill:#000000;fill-opacity:1;fill-rule:nonzero;stroke:none"
           transform="matrix(1,0,0,-1,271.491,29.1648)"><tspan
             id="tspan104"
             y="0"
             x="0 5.0539999 9.7229996 11.669 15.561 19.452999 23.344999 27.237 28.791 32.682999 36.575001">HA enabled,</tspan><tspan
             id="tspan106"
             y="7"
             x="-7.97578 -5.6447802 -1.75278 2.13922 6.03122 8.3622198 9.9162197 13.80822 17.70022 19.646219 23.538219 27.43022 31.32222 35.214218 36.768219 40.660221 44.552219">redo-log enabled,</tspan><tspan
             id="tspan108"
             y="14"
             x="-12.44531 -10.89131 -6.2223101 -1.16831 3.50069 5.4466901 7.3926902 11.28469 15.17669 18.676689 20.23069 23.73069 27.62269 29.568689 33.46069 35.791691 39.683689 43.183689 47.075691">iSCSI device broken</tspan></text>
</g><path
         id="path112"
         style="fill:none;stroke:#000000;stroke-width:5;stroke-linecap:butt;stroke-linejoin:miter;stroke-miterlimit:10;stroke-dasharray:none;stroke-opacity:1"
         d="M 399,385 H 3481 V 2436 H 399 Z" /><g
         transform="scale(10)"
         id="g114"><text
           id="text118"
           style="font-variant:normal;font-weight:normal;font-size:7px;font-family:Helvetica;-inkscape-font-specification:Helvetica;writing-mode:lr-tb;fill:#000000;fill-opacity:1;fill-rule:nonzero;stroke:none"
           transform="matrix(0,1,1,0,10.0352,114.451)"><tspan
             id="tspan116"
             y="0"
             x="0 6.6079998 8.9390001 10.493 12.439 16.330999 18.277 20.608 24.5 26.445999 30.337999 32.284 34.615002 40.445999 42">Write rate (min</tspan></text>
<text
           id="text122"
           style="font-variant:normal;font-weight:normal;font-size:5.5999999px;font-family:Helvetica;-inkscape-font-specification:Helvetica;writing-mode:lr-tb;fill:#000000;fill-opacity:1;fill-rule:nonzero;stroke:none"
           transform="matrix(0,1,1,0,6.5352,160.3432)"><tspan
             id="tspan120"
             y="0"
             x="0 1.8648">-1</tspan></text>
<text
           id="text126"
           style="font-variant:normal;font-weight:normal;font-size:7px;font-family:Helvetica;-inkscape-font-specification:Helvetica;writing-mode:lr-tb;fill:#000000;fill-opacity:1;fill-rule:nonzero;stroke:none"
           transform="matrix(0,1,1,0,10.0352,165.32172)"><tspan
             id="tspan124"
             y="0"
             x="0">)</tspan></text>
<text
           id="text138"
           style="font-variant:normal;font-weight:normal;font-size:7px;font-family:Helvetica;-inkscape-font-specification:Helvetica;writing-mode:lr-tb;fill:#000000;fill-opacity:1;fill-rule:nonzero;stroke:none"
           transform="matrix(1,0,0,-1,173.187,1.16484)"><tspan
             id="tspan128"
             y="0"
             x="0 5.0539999 8.9460001 12.838 14.784 16.337999 20.23 24.122 26.452999 30.344999 32.291 33.845001 37.737">Configuration</tspan><tspan
             id="tspan130"
             y="-212.89999"
             x="-79.536697 -75.644699 -71.752701 -67.860703">2602</tspan><tspan
             id="tspan132"
             y="-210.45"
             x="-7.8367 -3.9447 -0.052700002 3.8392999">2566</tspan><tspan
             id="tspan134"
             y="-201.75"
             x="63.813301 67.705299 71.597298 75.489304">2439</tspan><tspan
             id="tspan136"
             y="-169.25"
             x="135.51331 139.4053 143.2973 147.1893">1964</tspan></text>
</g><path
         id="path140"
         style="fill:none;stroke:#ff0000;stroke-width:2.5;stroke-linecap:butt;stroke-linejoin:miter;stroke-miterlimit:10;stroke-dasharray:none;stroke-opacity:1"
         d="M 614,385 H 900.5 V 2164 H 614 Z" /><path
         id="path142"
         style="fill:none;stroke:#ff0000;stroke-width:2.5;stroke-linecap:butt;stroke-linejoin:miter;stroke-miterlimit:10;stroke-dasharray:none;stroke-opacity:1"
         d="m 1331,385 h 286.5 V 2139.5 H 1331 Z" /><path
         id="path144"
         style="fill:none;stroke:#ff0000;stroke-width:2.5;stroke-linecap:butt;stroke-linejoin:miter;stroke-miterlimit:10;stroke-dasharray:none;stroke-opacity:1"
         d="M 2047.5,385 H 2334 v 1667.5 h -286.5 z" /><path
         id="path146"
         style="fill:none;stroke:#ff0000;stroke-width:2.5;stroke-linecap:butt;stroke-linejoin:miter;stroke-miterlimit:10;stroke-dasharray:none;stroke-opacity:1"
         d="M 2764.5,385 H 3051 v 1342.5 h -286.5 z" /><path
         id="path148"
         style="fill:none;stroke:#00ff00;stroke-width:2.5;stroke-linecap:butt;stroke-linejoin:miter;stroke-miterlimit:10;stroke-dasharray:none;stroke-opacity:1"
         d="m 757.5,2286.25 v 31.5" /><path
         id="path150"
         style="fill:none;stroke:#00ff00;stroke-width:2.5;stroke-linecap:butt;stroke-linejoin:miter;stroke-miterlimit:10;stroke-dasharray:none;stroke-opacity:1"
         d="m 741.75,2302 h 31.5" /><path
         id="path152"
         style="fill:none;stroke:#00ff00;stroke-width:2.5;stroke-linecap:butt;stroke-linejoin:miter;stroke-miterlimit:10;stroke-dasharray:none;stroke-opacity:1"
         d="m 757.5,2126.25 v 31.5" /><path
         id="path154"
         style="fill:none;stroke:#00ff00;stroke-width:2.5;stroke-linecap:butt;stroke-linejoin:miter;stroke-miterlimit:10;stroke-dasharray:none;stroke-opacity:1"
         d="m 741.75,2142 h 31.5" /><path
         id="path156"
         style="fill:none;stroke:#00ff00;stroke-width:2.5;stroke-linecap:butt;stroke-linejoin:miter;stroke-miterlimit:10;stroke-dasharray:none;stroke-opacity:1"
         d="m 757.5,2031.75 v 31.5" /><path
         id="path158"
         style="fill:none;stroke:#00ff00;stroke-width:2.5;stroke-linecap:butt;stroke-linejoin:miter;stroke-miterlimit:10;stroke-dasharray:none;stroke-opacity:1"
         d="m 741.75,2047.5 h 31.5" /><path
         id="path160"
         style="fill:none;stroke:#00ff00;stroke-width:2.5;stroke-linecap:butt;stroke-linejoin:miter;stroke-miterlimit:10;stroke-dasharray:none;stroke-opacity:1"
         d="m 1474,2191.75 v 31.5" /><path
         id="path162"
         style="fill:none;stroke:#00ff00;stroke-width:2.5;stroke-linecap:butt;stroke-linejoin:miter;stroke-miterlimit:10;stroke-dasharray:none;stroke-opacity:1"
         d="m 1458.25,2207.5 h 31.5" /><path
         id="path164"
         style="fill:none;stroke:#00ff00;stroke-width:2.5;stroke-linecap:butt;stroke-linejoin:miter;stroke-miterlimit:10;stroke-dasharray:none;stroke-opacity:1"
         d="m 1474,2055.25 v 31.5" /><path
         id="path166"
         style="fill:none;stroke:#00ff00;stroke-width:2.5;stroke-linecap:butt;stroke-linejoin:miter;stroke-miterlimit:10;stroke-dasharray:none;stroke-opacity:1"
         d="m 1458.25,2071 h 31.5" /><path
         id="path168"
         style="fill:none;stroke:#00ff00;stroke-width:2.5;stroke-linecap:butt;stroke-linejoin:miter;stroke-miterlimit:10;stroke-dasharray:none;stroke-opacity:1"
         d="m 2191,1929.25 v 31.5" /><path
         id="path170"
         style="fill:none;stroke:#00ff00;stroke-width:2.5;stroke-linecap:butt;stroke-linejoin:miter;stroke-miterlimit:10;stroke-dasharray:none;stroke-opacity:1"
         d="m 2175.25,1945 h 31.5" /><path
         id="path172"
         style="fill:none;stroke:#00ff00;stroke-width:2.5;stroke-linecap:butt;stroke-linejoin:miter;stroke-miterlimit:10;stroke-dasharray:none;stroke-opacity:1"
         d="m 2191,1918.25 v 31.5" /><path
         id="path174"
         style="fill:none;stroke:#00ff00;stroke-width:2.5;stroke-linecap:butt;stroke-linejoin:miter;stroke-miterlimit:10;stroke-dasharray:none;stroke-opacity:1"
         d="m 2175.25,1934 h 31.5" /><path
         id="path176"
         style="fill:none;stroke:#00ff00;stroke-width:2.5;stroke-linecap:butt;stroke-linejoin:miter;stroke-miterlimit:10;stroke-dasharray:none;stroke-opacity:1"
         d="m 2191,2156.25 v 31.5" /><path
         id="path178"
         style="fill:none;stroke:#00ff00;stroke-width:2.5;stroke-linecap:butt;stroke-linejoin:miter;stroke-miterlimit:10;stroke-dasharray:none;stroke-opacity:1"
         d="m 2175.25,2172 h 31.5" /><path
         id="path180"
         style="fill:none;stroke:#00ff00;stroke-width:2.5;stroke-linecap:butt;stroke-linejoin:miter;stroke-miterlimit:10;stroke-dasharray:none;stroke-opacity:1"
         d="m 2191,2064.75 v 31.5" /><path
         id="path182"
         style="fill:none;stroke:#00ff00;stroke-width:2.5;stroke-linecap:butt;stroke-linejoin:miter;stroke-miterlimit:10;stroke-dasharray:none;stroke-opacity:1"
         d="m 2175.25,2080.5 h 31.5" /><path
         id="path184"
         style="fill:none;stroke:#00ff00;stroke-width:2.5;stroke-linecap:butt;stroke-linejoin:miter;stroke-miterlimit:10;stroke-dasharray:none;stroke-opacity:1"
         d="m 2191,2113.75 v 31.5" /><path
         id="path186"
         style="fill:none;stroke:#00ff00;stroke-width:2.5;stroke-linecap:butt;stroke-linejoin:miter;stroke-miterlimit:10;stroke-dasharray:none;stroke-opacity:1"
         d="m 2175.25,2129.5 h 31.5" /><path
         id="path188"
         style="fill:none;stroke:#00ff00;stroke-width:2.5;stroke-linecap:butt;stroke-linejoin:miter;stroke-miterlimit:10;stroke-dasharray:none;stroke-opacity:1"
         d="m 2907.5,1696.75 v 31.5" /><path
         id="path190"
         style="fill:none;stroke:#00ff00;stroke-width:2.5;stroke-linecap:butt;stroke-linejoin:miter;stroke-miterlimit:10;stroke-dasharray:none;stroke-opacity:1"
         d="m 2891.75,1712.5 h 31.5" /><path
         id="path192"
         style="fill:none;stroke:#00ff00;stroke-width:2.5;stroke-linecap:butt;stroke-linejoin:miter;stroke-miterlimit:10;stroke-dasharray:none;stroke-opacity:1"
         d="m 2907.5,1711.75 v 31.5" /><path
         id="path194"
         style="fill:none;stroke:#00ff00;stroke-width:2.5;stroke-linecap:butt;stroke-linejoin:miter;stroke-miterlimit:10;stroke-dasharray:none;stroke-opacity:1"
         d="m 2891.75,1727.5 h 31.5" /><path
         id="path196"
         style="fill:none;stroke:#00ff00;stroke-width:2.5;stroke-linecap:butt;stroke-linejoin:miter;stroke-miterlimit:10;stroke-dasharray:none;stroke-opacity:1"
         d="m 2907.5,1727.25 v 31.5" /><path
         id="path198"
         style="fill:none;stroke:#00ff00;stroke-width:2.5;stroke-linecap:butt;stroke-linejoin:miter;stroke-miterlimit:10;stroke-dasharray:none;stroke-opacity:1"
         d="m 2891.75,1743 h 31.5" /><path
         id="path200"
         style="fill:none;stroke:#000000;stroke-width:5;stroke-linecap:butt;stroke-linejoin:miter;stroke-miterlimit:10;stroke-dasharray:none;stroke-opacity:1"
         d="M 399,385 H 3481 V 2436 H 399 Z" /></g></g></svg>